

----------------------
ffmpeg -i C:\web//archive/data//0/0/vcnp8h76m8.wmv -r 25 -b 800k -g 5 -ar 22050 -ac 2    -y C:\web//content/entry/data/0/0/vcnp8h76m8_100000_edit.flv  2>>"C:\web//content/entry/data/0/0/vcnp8h76m8_100000.flv_edit.log"
----------------------



----------------------
 -r 25 -b 800k -g 5 -ar 22050 -ac 2    -y 
----------------------

FFmpeg version SVN-r15815, Copyright (c) 2000-2008 Fabrice Bellard, et al.
  configuration: --enable-memalign-hack --enable-postproc --enable-swscale --enable-gpl --enable-libfaac --enable-libfaad --enable-libgsm --enable-libmp3lame --enable-libvorbis --enable-libtheora --enable-libx264 --enable-libxvid --disable-ffserver --disable-vhook --enable-avisynth --enable-pthreads
  libavutil     49.12. 0 / 49.12. 0
  libavcodec    52. 3. 0 / 52. 3. 0
  libavformat   52.23. 1 / 52.23. 1
  libavdevice   52. 1. 0 / 52. 1. 0
  libswscale     0. 6. 1 /  0. 6. 1
  libpostproc   51. 2. 0 / 51. 2. 0
  built on Nov 13 2008 10:28:29, gcc: 4.2.4 (TDM-1 for MinGW)
[wmv3 @ 0x163ca70]Extra data: 8 bits left, value: 0

Seems stream 1 codec frame rate differs from container frame rate: 1000.00 (1000/1) -> 30.00 (30/1)
Input #0, asf, from 'C:\web//archive/data//0/0/vcnp8h76m8.wmv':
  Duration: 00:00:03.61, start: 1.579000, bitrate: 2102 kb/s
    Stream #0.0: Audio: wmav2, 44100 Hz, stereo, s16, 160 kb/s
    Stream #0.1: Video: wmv3, yuv420p, 640x480, 1900 kb/s, 30.00 tb(r)
Output #0, flv, to 'C:\web//content/entry/data/0/0/vcnp8h76m8_100000_edit.flv':
    Stream #0.0: Video: flv, yuv420p, 640x480, q=2-31, 800 kb/s, 25.00 tb(c)
    Stream #0.1: Audio: libmp3lame, 22050 Hz, stereo, s16, 64 kb/s
Stream mapping:
  Stream #0.1 -> #0.0
  Stream #0.0 -> #0.1
[wmv3 @ 0x163ca70]Extra data: 8 bits left, value: 0
Press [q] to stop encoding
frame=   69 fps=  0 q=6.6 size=     529kB time=2.76 bitrate=1570.8kbits/s    [libmp3lame @ 0x16f00d0]lame: output buffer too small (buffer index: 8150, free bytes: 490)
frame=  114 fps=  0 q=5.5 Lsize=     792kB time=4.56 bitrate=1422.0kbits/s    
video:749kB audio:38kB global headers:0kB muxing overhead 0.625697%
